<svg xmlns="http://www.w3.org/2000/svg" width="480" height="360" fill-rule="evenodd" xmlns:v="https://vecta.io/nano"><g fill="#61c23f"><path d="M87.568 98.021c1.022-.005 1.965.278 2.827.848l76.042 69.823c-.025 1.006-.402 1.948-1.131 2.827-3.374 3.94-6.955 7.709-10.742 11.307l-13.004-11.873a252.12 252.12 0 0 0 .283 29.117c3.883.963 7.747 2 11.59 3.11a74.1 74.1 0 0 0 1.131-6.784 6.52 6.52 0 0 1 2.544-1.979c9.336-2.805 18.759-5.067 28.268-6.784l40.989 35.901c.713 2.618.148 4.88-1.696 6.784-9.319 10.62-18.836 21.079-28.551 31.378-1.978 1.112-3.863.923-5.654-.565l-38.162-33.64a10.12 10.12 0 0 1-.848-4.24c.4-4.732.966-9.444 1.696-14.134l-.565-1.413a123.94 123.94 0 0 0-11.307-2.827v57.668h-61.06v-50.318H58.735v50.318H34.989l-.283-91.59c-4.15 3.869-8.392 7.639-12.721 11.307a212.5 212.5 0 0 1-12.438-13.569 707.61 707.61 0 0 1 24.876-22.615c.565-10.544.754-21.104.565-31.661h19.223c-.094 4.527 0 9.05.283 13.569zm-28.833 70.672h21.484v22.615H58.735zm38.445 0h21.484v22.615H97.179zm84.806 27.138c11.965 9.673 23.649 19.755 35.053 30.247-7.517 8.837-15.244 17.506-23.18 26.007-1.4-.422-2.719-1.177-3.958-2.261l-30.247-26.855c.397-4.342.868-8.678 1.413-13.004 3.59-.447 5.757 1.061 6.502 4.523 4.173 3.259 7.753 2.693 10.742-1.696 1.036-6.502-1.696-9.234-8.198-8.198a14.75 14.75 0 0 0-2.827 1.979c-1.668-.559-3.364-1.03-5.088-1.413-.608-.976-.703-2.012-.283-3.11a324.84 324.84 0 0 1 20.071-6.219z" opacity=".988"/><path d="M257.179 73.145h214.275v213.71H257.179z" opacity=".997"/></g><path d="M430.748 148.339c7.673-1.052 14.834.361 21.484 4.24 4.394 3.046 4.111 5.779-.848 8.198-12.142-8.504-23.261-7.374-33.357 3.392-6.185 10.163-6.939 20.717-2.261 31.661 5.899 7.867 13.531 10.035 22.897 6.502 1.574-.504 3.081-1.164 4.523-1.979 1.018-4.485 1.771-9.008 2.261-13.569-3.188-.469-6.391-.752-9.611-.848-.361-1.736-.361-3.526 0-5.371h17.526a278.65 278.65 0 0 1-3.11 23.18c-8.17 5.316-17.122 7.295-26.855 5.936-8.844-2.436-14.78-7.995-17.809-16.678-3.328-14.49.158-27.023 10.459-37.597 4.429-3.44 9.329-5.796 14.7-7.067z" fill="#f0a69c"/><path d="M291.667 193.004a23.13 23.13 0 0 0 .283 5.088 5.73 5.73 0 0 0 .848-2.261l17.809-42.968c1.064-3.681 3.42-4.906 7.067-3.675.66.283 1.131.754 1.413 1.413 2.782 14.477 5.326 28.988 7.632 43.533-.092 1.146.003 2.277.283 3.392a1.9 1.9 0 0 0 .848-1.696 1358.28 1358.28 0 0 1 17.809-45.795 5.34 5.34 0 0 1 1.413-.848 48 48 0 0 1 7.35-.283l-24.311 59.929a24.35 24.35 0 0 1-7.35.565l-8.763-48.056c-6.963 15.904-13.654 31.925-20.071 48.056h-7.915a1650.71 1650.71 0 0 0-9.611-59.929c2.618-.657 5.257-.751 7.915-.283a557.06 557.06 0 0 1 7.35 43.816z" fill="#efa69c"/><path d="M362.904 148.905a408.1 408.1 0 0 1 21.484.283c9.794 1.684 14.224 7.432 13.286 17.244-1.925 8.24-6.919 13.705-14.982 16.396 4.999 8.488 9.71 17.157 14.134 26.007a21.52 21.52 0 0 1-8.481.283c-4.463-7.698-8.705-15.523-12.721-23.463a3.94 3.94 0 0 0-1.979-1.413 40.91 40.91 0 0 0-6.784-.283 317.06 317.06 0 0 0-2.827 25.442h-8.481l7.35-60.495z" fill="#f0a69c"/><path d="M370.253 155.124a102.26 102.26 0 0 1 10.742.283c7.282 1.259 10.015 5.499 8.198 12.721-1.594 5.927-5.458 9.226-11.59 9.894a91.92 91.92 0 0 1-10.177.283l2.827-23.18zm-43.533 39.01l1.131 1.696a1.9 1.9 0 0 1-.848 1.696c-.28-1.115-.374-2.246-.283-3.392zm-35.053-1.13l1.131 2.827a5.73 5.73 0 0 1-.848 2.261 23.13 23.13 0 0 1-.283-5.088z" fill="#61c23f"/></svg>