<svg xmlns="http://www.w3.org/2000/svg" width="480.5" height="267.022" fill-rule="evenodd" xmlns:v="https://vecta.io/nano"><g fill="#61c23f"><path d="M.001 245.936c.537-.369 1.196-.557 1.979-.565.937.099 1.691.476 2.261 1.131.596 4.735 1.35 9.449 2.261 14.134 2.151-5.042 4.129-10.13 5.936-15.265h3.392a300.6 300.6 0 0 0 2.827 14.7 229.92 229.92 0 0 0 5.654-14.134c1.319-.754 2.639-.754 3.958 0l-8.198 20.353a6.9 6.9 0 0 1-3.675.565 150.74 150.74 0 0 0-2.827-14.7c-2.219 4.628-4.292 9.339-6.219 14.134-1.268.551-2.587.74-3.958.565-.715-7.112-1.845-14.085-3.392-20.919z" opacity=".859"/><path d="M40.142 245.371h13.004v2.261h-9.611l-.565 7.35h7.35v2.261h-7.915l-.565 7.35h9.046v2.261H37.881l2.261-21.484z" opacity=".919"/><path d="M65.584 245.371a102.26 102.26 0 0 1 10.742.283c2.583 1.437 3.431 3.604 2.544 6.502-.444 1.743-1.481 2.968-3.11 3.675 1.941.864 2.883 2.372 2.827 4.523.025 3.18-1.483 5.253-4.523 6.219a102.26 102.26 0 0 1-10.742.283l2.261-21.484zm3.392 2.261c1.945-.113 3.83.17 5.654.848 1.323 2.1.946 3.984-1.131 5.654-1.636.65-3.332.932-5.088.848zm-1.131 9.611a15.76 15.76 0 0 1 6.219.848c1.397 1.67 1.397 3.366 0 5.088a12.23 12.23 0 0 1-6.784 1.413l.565-7.35z" opacity=".895"/><path d="M93.287 245.371a102.26 102.26 0 0 1 10.742.283c3.119 2.411 3.59 5.332 1.413 8.763a16.69 16.69 0 0 1-2.544 1.413c2.355.557 3.486 2.065 3.392 4.523-.131 3.094-1.638 5.166-4.523 6.219a102.26 102.26 0 0 1-10.742.283l2.261-21.484zm3.392 2.261a9.64 9.64 0 0 1 5.654 1.131c.895 4.76-1.178 6.833-6.219 6.219.049-2.463.237-4.913.565-7.35zm-1.131 9.611c3.293-.716 5.744.321 7.35 3.11-1.409 3.47-4.048 4.883-7.915 4.24.049-2.463.237-4.913.565-7.35z" opacity=".888"/><path d="M119.859 245.371c1.19-.169 2.32.019 3.392.565-.534 2.232-.911 4.494-1.131 6.784h-2.827l.565-7.35z" opacity=".807"/><path d="M138.517 245.371c2.269-.094 4.531.001 6.784.283 2.986 1.329 2.986 2.554 0 3.675-2.286-1.901-4.453-1.901-6.502 0-.884 1.204-.884 2.335 0 3.392l5.936 3.11c2.545 3.853 1.979 7.245-1.696 10.177-2.571.873-5.209 1.062-7.915.565a6.17 6.17 0 0 1-2.827-2.544c.435-1.002 1.189-1.567 2.261-1.696a29.24 29.24 0 0 0 4.24 2.261c2.348-.464 3.761-1.877 4.24-4.24-.34-.907-.905-1.661-1.696-2.261a43.27 43.27 0 0 1-5.088-2.261c-2.481-4.155-1.727-7.642 2.261-10.459z" opacity=".894"/><path d="M177.527 245.371a82.01 82.01 0 0 1 9.611.283c2.122.898 3.253 2.5 3.392 4.806-.438 3.327-2.134 5.777-5.088 7.35a91.19 91.19 0 0 0 4.523 8.481 4.93 4.93 0 0 1-3.958.283l-4.24-7.632c-.628-.869-1.476-1.246-2.544-1.131l-.565 9.046H174.7l2.827-21.484zm3.392 2.261c5.276-.297 6.783 1.87 4.523 6.502a10.71 10.71 0 0 1-5.654 1.413c.194-2.687.571-5.325 1.131-7.915z" opacity=".875"/><path d="M204.1 245.371h13.004v2.261h-9.611l-.565 7.35h7.35v2.261h-7.915l-.565 7.35h9.046v2.261H201.84l2.261-21.484z" opacity=".919"/><path d="M234.63 245.371c1.481-.152 2.894.037 4.24.565 1.869 6.909 3.472 13.887 4.806 20.919a6.9 6.9 0 0 1-3.675-.565 39.87 39.87 0 0 1-.848-5.088 55.65 55.65 0 0 0-7.915.283 18.7 18.7 0 0 0-2.261 4.806c-1.319.754-2.639.754-3.958 0 3.358-6.901 6.562-13.876 9.611-20.919zm1.131 5.088c.65.165 1.027.635 1.131 1.413l1.696 6.784a11.71 11.71 0 0 1-6.219-.283c1.452-2.526 2.583-5.164 3.392-7.915z" opacity=".879"/><path d="M258.375 245.371h3.392l-2.261 19.223a32.31 32.31 0 0 1 8.481.565l-.565 1.131a62.84 62.84 0 0 1-11.873.565l2.827-21.484z" opacity=".887"/><path d="M279.294 245.371h16.396v2.261c-2.226-.166-4.393.023-6.502.565a250.74 250.74 0 0 0-1.979 18.657h-3.958l2.261-19.223h-6.219v-2.261z" opacity=".886"/><path d="M305.301 245.371c1.481-.152 2.894.037 4.24.565l3.392 9.046a144.42 144.42 0 0 1 5.936-9.046c1.319-.754 2.639-.754 3.958 0-2.845 4.071-5.578 8.219-8.198 12.438l-1.413 7.915c-1.072.546-2.203.734-3.392.565.124-2.79.501-5.522 1.131-8.198a194.56 194.56 0 0 1-5.654-13.286z" opacity=".857"/><path d="M353.923 245.371a48 48 0 0 1 7.35.283c1.456.442 2.587 1.29 3.392 2.544-.403.874-1.062 1.439-1.979 1.696-7.67-3.747-12.099-1.297-13.286 7.35.761 6.057 3.965 8.131 9.611 6.219a10.37 10.37 0 0 0 1.131-5.088h-3.392v-2.261h6.784a38.88 38.88 0 0 1-.848 8.481 3.94 3.94 0 0 1-1.979 1.413c-11.746 2.576-16.363-2.041-13.852-13.852 1.566-3.169 3.921-5.43 7.067-6.784z" opacity=".881"/><path d="M378.234 245.371a82.01 82.01 0 0 1 9.611.283c1.446.387 2.483 1.235 3.11 2.544 1.073 4.52-.529 7.629-4.806 9.329 1.553 3.107 3.249 6.122 5.088 9.046a6.34 6.34 0 0 1-4.523-.283 79.69 79.69 0 0 0-4.24-7.915 2.48 2.48 0 0 0-1.979-.565l-1.131 9.046h-3.392l2.261-21.484zm3.392 2.261c2.972-.341 5.045.789 6.219 3.392-1.11 3.633-3.561 5.046-7.35 4.24.583-2.493.96-5.037 1.131-7.632z" opacity=".874"/><path d="M410.46 245.371c9.278-.993 13.329 3.153 12.155 12.438-2.509 8.181-7.88 10.913-16.113 8.198-4.733-5.108-5.204-10.668-1.413-16.678 1.597-1.683 3.388-3.002 5.371-3.958zm2.827 2.261c3.762.842 5.835 3.198 6.219 7.067-.047 5.415-2.686 8.712-7.915 9.894-4.859-1.99-6.461-5.571-4.806-10.742 1.011-3.369 3.179-5.442 6.502-6.219z" opacity=".877"/><path d="M436.467 245.371c1.333-.092 2.652.002 3.958.283a69.4 69.4 0 0 0-1.413 16.113c1.699 2.831 3.866 3.302 6.502 1.413a8.95 8.95 0 0 0 1.979-3.11l1.979-14.7h3.392a87.46 87.46 0 0 1-2.544 16.961c-1.784 3.201-4.516 4.708-8.198 4.523-4.723.084-7.172-2.272-7.35-7.067.682-4.795 1.247-9.601 1.696-14.417z" opacity=".856"/><path d="M466.431 245.371a91.92 91.92 0 0 1 10.177.283c4.325 3.682 4.517 7.64.565 11.873a15.55 15.55 0 0 1-8.481 1.413l-1.131 7.915h-3.392l2.261-21.484zm3.392 2.261c5.037-.715 7.016 1.359 5.936 6.219-1.826 2.304-4.178 3.153-7.067 2.544a43.17 43.17 0 0 0 1.131-8.763z" opacity=".895"/></g><g fill="#61c23f"><path d="M80.284 24.876c1.022-.005 1.965.278 2.827.848l76.042 69.823c-.025 1.006-.402 1.948-1.131 2.827-3.374 3.94-6.955 7.709-10.742 11.307l-13.004-11.873a252.12 252.12 0 0 0 .283 29.117c3.883.963 7.747 2 11.59 3.11a74.1 74.1 0 0 0 1.131-6.784 6.52 6.52 0 0 1 2.544-1.979c9.336-2.805 18.759-5.067 28.268-6.784l40.989 35.901c.713 2.618.148 4.88-1.696 6.784-9.319 10.62-18.836 21.079-28.551 31.378-1.978 1.112-3.863.923-5.654-.565l-38.162-33.64a10.12 10.12 0 0 1-.848-4.24c.4-4.732.966-9.444 1.696-14.134l-.565-1.413a123.94 123.94 0 0 0-11.307-2.827V189.4h-61.06v-50.318H51.45V189.4H27.704l-.283-91.59c-4.15 3.869-8.392 7.639-12.721 11.307-4.339-4.339-8.485-8.862-12.438-13.569a707.61 707.61 0 0 1 24.876-22.615 443.36 443.36 0 0 0 .565-31.661h19.223c-.094 4.527 0 9.05.283 13.569l33.074-29.965zM51.45 95.548h21.484v22.615H51.45zm38.445 0h21.484v22.615H89.895zm84.806 27.138c11.965 9.673 23.649 19.755 35.053 30.247-7.517 8.837-15.244 17.506-23.18 26.007-1.4-.422-2.719-1.177-3.958-2.261l-30.247-26.855c.397-4.342.868-8.678 1.413-13.004 3.59-.447 5.757 1.061 6.502 4.523 4.173 3.259 7.753 2.693 10.742-1.696 1.036-6.502-1.696-9.234-8.198-8.198a14.75 14.75 0 0 0-2.827 1.979c-1.668-.559-3.364-1.03-5.088-1.413-.608-.976-.703-2.012-.283-3.11a324.84 324.84 0 0 1 20.071-6.219z" opacity=".988"/><path d="M249.895 0H464.17v213.71H249.895z" opacity=".997"/></g><path d="M423.463 75.194c7.673-1.052 14.834.361 21.484 4.24 4.394 3.046 4.111 5.779-.848 8.198-12.142-8.504-23.261-7.374-33.357 3.392-6.185 10.163-6.939 20.717-2.261 31.661 5.899 7.867 13.531 10.035 22.897 6.502 1.574-.504 3.081-1.164 4.523-1.979 1.018-4.485 1.771-9.008 2.261-13.569-3.188-.469-6.391-.752-9.611-.848-.361-1.736-.361-3.526 0-5.371h17.526a278.65 278.65 0 0 1-3.11 23.18c-8.17 5.316-17.122 7.295-26.855 5.936-8.844-2.436-14.78-7.995-17.809-16.678-3.328-14.49.158-27.023 10.459-37.597 4.429-3.44 9.329-5.796 14.7-7.067z" fill="#f0a69c"/><path d="M284.382 119.859a23.13 23.13 0 0 0 .283 5.088 5.73 5.73 0 0 0 .848-2.261l17.809-42.968c1.064-3.681 3.42-4.906 7.067-3.675.66.283 1.131.754 1.413 1.413 2.782 14.477 5.326 28.988 7.632 43.533-.092 1.146.003 2.277.283 3.392a1.9 1.9 0 0 0 .848-1.696 1358.28 1358.28 0 0 1 17.809-45.795 5.34 5.34 0 0 1 1.413-.848 48 48 0 0 1 7.35-.283l-24.311 59.929a24.35 24.35 0 0 1-7.35.565l-8.763-48.056a1529 1529 0 0 0-20.071 48.056h-7.915a1650.71 1650.71 0 0 0-9.611-59.929c2.618-.657 5.257-.751 7.915-.283a557.06 557.06 0 0 1 7.35 43.816z" fill="#efa69c"/><path d="M355.619 75.76a408.09 408.09 0 0 1 21.484.283c9.794 1.684 14.224 7.432 13.286 17.244-1.925 8.24-6.919 13.705-14.982 16.396 4.999 8.488 9.71 17.157 14.134 26.007a21.52 21.52 0 0 1-8.481.283c-4.463-7.698-8.705-15.523-12.721-23.463a3.94 3.94 0 0 0-1.979-1.413 40.91 40.91 0 0 0-6.784-.283 317.06 317.06 0 0 0-2.827 25.442h-8.481l7.35-60.495z" fill="#f0a69c"/><path d="M362.969 81.979a102.26 102.26 0 0 1 10.742.283c7.282 1.259 10.015 5.499 8.198 12.721-1.594 5.927-5.458 9.226-11.59 9.894a91.92 91.92 0 0 1-10.177.283l2.827-23.18zm-43.534 39.01l1.131 1.696a1.9 1.9 0 0 1-.848 1.696c-.28-1.115-.374-2.246-.283-3.392zm-35.053-1.13l1.131 2.827a5.73 5.73 0 0 1-.848 2.261 23.13 23.13 0 0 1-.283-5.088z" fill="#61c23f"/></svg>